<?xml version="1.0" encoding="utf-8"?>
<!-- Generator: Adobe Illustrator 19.2.1, SVG Export Plug-In . SVG Version: 6.00 Build 0)  -->
<svg version="1.1" id="Layer_2" xmlns="http://www.w3.org/2000/svg" xmlns:xlink="http://www.w3.org/1999/xlink" x="0px" y="0px"
	 viewBox="0 0 326 96.7" style="enable-background:new 0 0 326 96.7;" xml:space="preserve">
<style type="text/css">
	.st0{fill:#011640;}
	.st1{fill:#FFFFFF;}
</style>
<g>
	<path d="M24.8,57.8h-1.9c-0.4,0-0.8-0.1-1-0.2c-0.3-0.1-0.4-0.4-0.5-0.8l-0.5-2.3c-0.7,0.6-1.3,1.1-1.9,1.6c-0.6,0.5-1.3,0.9-2,1.2
		s-1.4,0.6-2.2,0.7c-0.8,0.2-1.6,0.2-2.6,0.2c-1,0-1.9-0.1-2.7-0.4c-0.8-0.3-1.6-0.7-2.2-1.2C6.5,56,6,55.3,5.7,54.5
		c-0.4-0.8-0.6-1.8-0.6-3c0-1,0.3-1.9,0.8-2.9c0.5-0.9,1.4-1.7,2.6-2.4c1.2-0.7,2.8-1.3,4.8-1.7c2-0.5,4.4-0.7,7.2-0.7v-2
		c0-2-0.4-3.4-1.2-4.4c-0.8-1-2.1-1.5-3.7-1.5c-1.1,0-2,0.1-2.7,0.4s-1.4,0.6-1.9,0.9c-0.5,0.3-1,0.6-1.4,0.9
		c-0.4,0.3-0.8,0.4-1.1,0.4c-0.3,0-0.6-0.1-0.8-0.2c-0.2-0.2-0.4-0.3-0.5-0.6l-0.8-1.4c1.4-1.3,2.9-2.3,4.5-3c1.6-0.7,3.4-1,5.3-1
		c1.4,0,2.6,0.2,3.7,0.7c1.1,0.5,2,1.1,2.7,1.9c0.7,0.8,1.3,1.8,1.7,3s0.6,2.5,0.6,3.8V57.8z M13.4,55.1c0.8,0,1.5-0.1,2.1-0.2
		s1.2-0.4,1.8-0.7c0.6-0.3,1.1-0.6,1.6-1c0.5-0.4,1-0.9,1.5-1.4v-5.2c-2,0-3.7,0.1-5.2,0.4c-1.4,0.3-2.6,0.6-3.5,1s-1.5,0.9-1.9,1.5
		c-0.4,0.6-0.6,1.2-0.6,1.9c0,0.7,0.1,1.2,0.3,1.7c0.2,0.5,0.5,0.9,0.9,1.2s0.8,0.5,1.3,0.7C12.3,55,12.8,55.1,13.4,55.1z"/>
	<path d="M48.5,37.3c-0.1,0.2-0.3,0.3-0.4,0.4s-0.3,0.1-0.6,0.1s-0.5-0.1-0.8-0.3c-0.3-0.2-0.7-0.4-1.1-0.7s-1-0.5-1.6-0.7
		c-0.6-0.2-1.4-0.3-2.3-0.3c-1.2,0-2.3,0.2-3.2,0.7c-0.9,0.4-1.7,1.1-2.4,1.9s-1.1,1.8-1.4,3s-0.5,2.5-0.5,3.9c0,1.5,0.2,2.9,0.5,4
		c0.3,1.2,0.8,2.2,1.5,3c0.6,0.8,1.4,1.4,2.3,1.8c0.9,0.4,1.9,0.6,3,0.6c1.1,0,1.9-0.1,2.6-0.4c0.7-0.3,1.3-0.5,1.7-0.9
		s0.8-0.6,1.1-0.9c0.3-0.3,0.6-0.4,0.9-0.4c0.4,0,0.7,0.1,0.8,0.4l1.2,1.6c-1.1,1.3-2.4,2.3-4.1,2.9c-1.6,0.6-3.3,0.9-5.2,0.9
		c-1.6,0-3-0.3-4.4-0.9s-2.5-1.4-3.5-2.5c-1-1.1-1.8-2.4-2.3-4s-0.9-3.4-0.9-5.5c0-1.9,0.3-3.6,0.8-5.2c0.5-1.6,1.3-2.9,2.3-4.1
		c1-1.1,2.2-2,3.7-2.7c1.5-0.6,3.1-1,5-1c1.7,0,3.3,0.3,4.6,0.9c1.3,0.6,2.5,1.4,3.6,2.4L48.5,37.3z"/>
	<path d="M71.6,37.3c-0.1,0.2-0.3,0.3-0.4,0.4s-0.3,0.1-0.6,0.1s-0.5-0.1-0.8-0.3c-0.3-0.2-0.7-0.4-1.1-0.7s-1-0.5-1.6-0.7
		c-0.6-0.2-1.4-0.3-2.3-0.3c-1.2,0-2.3,0.2-3.2,0.7c-0.9,0.4-1.7,1.1-2.4,1.9s-1.1,1.8-1.4,3s-0.5,2.5-0.5,3.9c0,1.5,0.2,2.9,0.5,4
		c0.3,1.2,0.8,2.2,1.5,3c0.6,0.8,1.4,1.4,2.3,1.8c0.9,0.4,1.9,0.6,3,0.6c1.1,0,1.9-0.1,2.6-0.4c0.7-0.3,1.3-0.5,1.7-0.9
		s0.8-0.6,1.1-0.9c0.3-0.3,0.6-0.4,0.9-0.4c0.4,0,0.7,0.1,0.8,0.4l1.2,1.6c-1.1,1.3-2.4,2.3-4.1,2.9c-1.6,0.6-3.3,0.9-5.2,0.9
		c-1.6,0-3-0.3-4.4-0.9s-2.5-1.4-3.5-2.5c-1-1.1-1.8-2.4-2.3-4s-0.9-3.4-0.9-5.5c0-1.9,0.3-3.6,0.8-5.2c0.5-1.6,1.3-2.9,2.3-4.1
		c1-1.1,2.2-2,3.7-2.7c1.5-0.6,3.1-1,5-1c1.7,0,3.3,0.3,4.6,0.9c1.3,0.6,2.5,1.4,3.6,2.4L71.6,37.3z"/>
	<path d="M87.7,32.4c1.8,0,3.5,0.3,4.9,0.9c1.5,0.6,2.7,1.5,3.8,2.6c1,1.1,1.8,2.5,2.4,4.1c0.6,1.6,0.8,3.4,0.8,5.3
		c0,2-0.3,3.8-0.8,5.3c-0.6,1.6-1.3,2.9-2.4,4c-1,1.1-2.3,2-3.8,2.6c-1.5,0.6-3.1,0.9-4.9,0.9c-1.8,0-3.5-0.3-4.9-0.9
		S80,55.8,79,54.7c-1-1.1-1.8-2.5-2.4-4c-0.6-1.6-0.8-3.4-0.8-5.3c0-2,0.3-3.7,0.8-5.3c0.6-1.6,1.4-2.9,2.4-4.1c1-1.1,2.3-2,3.8-2.6
		C84.2,32.7,85.8,32.4,87.7,32.4z M87.7,54.7c2.5,0,4.3-0.8,5.5-2.5c1.2-1.7,1.8-4,1.8-6.9c0-3-0.6-5.3-1.8-7
		c-1.2-1.7-3.1-2.5-5.5-2.5c-1.3,0-2.3,0.2-3.3,0.6c-0.9,0.4-1.7,1-2.3,1.9c-0.6,0.8-1.1,1.8-1.4,3c-0.3,1.2-0.5,2.5-0.5,4
		s0.2,2.8,0.5,4c0.3,1.2,0.8,2.2,1.4,2.9c0.6,0.8,1.4,1.4,2.3,1.8C85.3,54.5,86.4,54.7,87.7,54.7z"/>
	<path d="M108.8,32.8v15.9c0,1.9,0.4,3.4,1.3,4.4c0.9,1,2.2,1.6,3.9,1.6c1.3,0,2.5-0.3,3.6-0.9c1.1-0.6,2.2-1.5,3.1-2.5V32.8h4.4v25
		h-2.6c-0.6,0-1-0.3-1.2-0.9l-0.3-2.7c-1.1,1.2-2.3,2.2-3.7,2.9c-1.3,0.7-2.9,1.1-4.6,1.1c-1.4,0-2.6-0.2-3.6-0.7
		c-1-0.5-1.9-1.1-2.6-1.9c-0.7-0.8-1.2-1.8-1.6-3c-0.4-1.2-0.5-2.5-0.5-3.9V32.8H108.8z"/>
	<path d="M132.4,57.8v-25h2.6c0.6,0,1,0.3,1.2,0.9l0.3,2.7c1.1-1.2,2.3-2.2,3.6-2.9s2.9-1.1,4.7-1.1c1.4,0,2.6,0.2,3.6,0.7
		c1,0.5,1.9,1.1,2.6,1.9s1.2,1.8,1.6,3c0.4,1.2,0.5,2.5,0.5,3.9v15.9h-4.4V41.9c0-1.9-0.4-3.4-1.3-4.4c-0.9-1-2.2-1.6-4-1.6
		c-1.3,0-2.5,0.3-3.6,0.9c-1.1,0.6-2.2,1.5-3.1,2.5v18.4H132.4z"/>
	<path d="M167.4,58.2c-2,0-3.5-0.6-4.6-1.7s-1.6-2.7-1.6-4.8V36.5h-3c-0.3,0-0.5-0.1-0.7-0.2c-0.2-0.2-0.3-0.4-0.3-0.7v-1.8l4.1-0.5
		l1-7.7c0-0.2,0.1-0.4,0.3-0.6s0.4-0.2,0.7-0.2h2.2v8.6h7.2v3.2h-7.2v15c0,1.1,0.3,1.8,0.8,2.3c0.5,0.5,1.2,0.8,2,0.8
		c0.5,0,0.9-0.1,1.2-0.2c0.3-0.1,0.6-0.3,0.9-0.4c0.2-0.1,0.5-0.3,0.6-0.4c0.2-0.1,0.3-0.2,0.5-0.2c0.2,0,0.4,0.1,0.6,0.4l1.3,2.1
		c-0.8,0.7-1.7,1.3-2.7,1.7C169.7,58,168.6,58.2,167.4,58.2z"/>
</g>
<rect x="176.8" y="6.3" class="st0" width="145.4" height="65.3"/>
<rect x="3.2" y="68.9" class="st0" width="173.9" height="3"/>
<path class="st1" d="M198.6,34.6c-0.2,0.3-0.5,0.5-0.9,0.5c-0.2,0-0.5-0.1-0.8-0.3s-0.7-0.4-1.1-0.6c-0.4-0.2-0.9-0.4-1.5-0.6
	c-0.6-0.2-1.3-0.3-2.1-0.3c-0.7,0-1.3,0.1-1.9,0.3c-0.6,0.2-1,0.4-1.4,0.7c-0.4,0.3-0.7,0.7-0.9,1.1c-0.2,0.4-0.3,0.9-0.3,1.4
	c0,0.6,0.2,1.1,0.5,1.5c0.4,0.4,0.8,0.8,1.4,1.1c0.6,0.3,1.2,0.6,2,0.8c0.7,0.2,1.5,0.5,2.3,0.7s1.5,0.5,2.3,0.9
	c0.7,0.3,1.4,0.7,2,1.2s1,1,1.4,1.7c0.4,0.7,0.5,1.5,0.5,2.5c0,1.1-0.2,2.1-0.6,3c-0.4,0.9-1,1.7-1.7,2.4c-0.8,0.7-1.7,1.2-2.8,1.6
	c-1.1,0.4-2.4,0.6-3.9,0.6c-1.7,0-3.2-0.3-4.5-0.8c-1.3-0.5-2.5-1.2-3.4-2.1l1-1.6c0.1-0.2,0.3-0.4,0.4-0.5c0.2-0.1,0.4-0.2,0.7-0.2
	s0.6,0.1,0.9,0.3c0.3,0.2,0.7,0.5,1.1,0.7c0.4,0.3,1,0.5,1.6,0.7c0.6,0.2,1.4,0.3,2.4,0.3c0.8,0,1.5-0.1,2.1-0.3s1.1-0.5,1.5-0.9
	c0.4-0.4,0.7-0.8,0.9-1.2c0.2-0.5,0.3-1,0.3-1.5c0-0.7-0.2-1.2-0.5-1.6c-0.4-0.4-0.8-0.8-1.4-1.1c-0.6-0.3-1.2-0.6-2-0.8
	c-0.7-0.2-1.5-0.5-2.3-0.7s-1.5-0.5-2.3-0.9c-0.7-0.3-1.4-0.7-2-1.2s-1-1.1-1.4-1.8s-0.5-1.6-0.5-2.6c0-0.9,0.2-1.8,0.6-2.6
	c0.4-0.8,0.9-1.6,1.6-2.2c0.7-0.6,1.6-1.1,2.7-1.5c1-0.4,2.2-0.6,3.6-0.6c1.6,0,3,0.2,4.2,0.7c1.2,0.5,2.3,1.2,3.2,2L198.6,34.6z"/>
<path class="st1" d="M210.9,23.2c0,0.4-0.1,0.8-0.2,1.1c-0.2,0.4-0.4,0.7-0.7,0.9c-0.3,0.3-0.6,0.5-1,0.6c-0.4,0.2-0.7,0.2-1.2,0.2
	c-0.4,0-0.8-0.1-1.1-0.2c-0.4-0.2-0.7-0.4-0.9-0.6c-0.3-0.3-0.5-0.6-0.6-0.9c-0.2-0.4-0.2-0.7-0.2-1.1c0-0.4,0.1-0.8,0.2-1.2
	c0.2-0.4,0.4-0.7,0.6-1s0.6-0.5,0.9-0.6c0.4-0.2,0.7-0.2,1.1-0.2c0.4,0,0.8,0.1,1.2,0.2c0.4,0.2,0.7,0.4,1,0.6
	c0.3,0.3,0.5,0.6,0.7,1C210.9,22.4,210.9,22.8,210.9,23.2z M210,30.6v23.8h-4.2V30.6H210z"/>
<path class="st1" d="M217.4,54.4V30.6h2.5c0.6,0,1,0.3,1.1,0.9l0.3,2.4c0.9-1.1,1.9-2,2.9-2.7c1.1-0.7,2.4-1,3.8-1
	c1.6,0,2.9,0.4,3.9,1.3c1,0.9,1.7,2.1,2.1,3.6c0.3-0.9,0.8-1.6,1.3-2.2s1.1-1.1,1.8-1.5c0.7-0.4,1.4-0.7,2.1-0.9
	c0.8-0.2,1.5-0.3,2.3-0.3c1.3,0,2.4,0.2,3.3,0.6c1,0.4,1.8,1,2.5,1.7c0.7,0.8,1.2,1.7,1.6,2.8c0.4,1.1,0.5,2.4,0.5,3.8v15.1h-4.2
	V39.3c0-1.9-0.4-3.3-1.2-4.2c-0.8-1-2-1.4-3.5-1.4c-0.7,0-1.3,0.1-2,0.4c-0.6,0.2-1.2,0.6-1.6,1.1c-0.5,0.5-0.8,1.1-1.1,1.8
	c-0.3,0.7-0.4,1.5-0.4,2.5v15.1h-4.2V39.3c0-1.9-0.4-3.3-1.2-4.3c-0.8-0.9-1.9-1.4-3.4-1.4c-1,0-2,0.3-2.9,0.8
	c-0.9,0.6-1.7,1.3-2.4,2.3v17.7H217.4z"/>
<path class="st1" d="M255.9,62.5V30.6h2.5c0.6,0,1,0.3,1.1,0.9l0.4,2.8c1-1.2,2.2-2.2,3.5-3c1.3-0.8,2.8-1.1,4.5-1.1
	c1.4,0,2.6,0.3,3.7,0.8c1.1,0.5,2.1,1.3,2.8,2.3c0.8,1,1.4,2.3,1.8,3.8c0.4,1.5,0.6,3.3,0.6,5.2c0,1.8-0.2,3.4-0.7,4.9
	c-0.5,1.5-1.1,2.8-2,3.9c-0.9,1.1-2,2-3.2,2.6c-1.3,0.6-2.7,1-4.3,1c-1.5,0-2.7-0.2-3.8-0.7c-1-0.5-2-1.2-2.8-2.1v10.5H255.9z
	 M266.5,33.6c-1.4,0-2.6,0.3-3.6,0.9s-2,1.5-2.8,2.7v11.5c0.8,1,1.6,1.8,2.5,2.2c0.9,0.4,1.9,0.6,3.1,0.6c2.2,0,3.9-0.8,5.1-2.4
	s1.8-3.8,1.8-6.8c0-1.5-0.1-2.9-0.4-4c-0.3-1.1-0.7-2-1.2-2.7c-0.5-0.7-1.2-1.2-1.9-1.6C268.3,33.8,267.5,33.6,266.5,33.6z"/>
<path class="st1" d="M286.5,19.8v34.6h-4.2V19.8H286.5z"/>
<path class="st1" d="M303.3,30.3c1.4,0,2.7,0.2,3.9,0.7c1.2,0.5,2.2,1.2,3.1,2.1c0.9,0.9,1.6,2,2.1,3.3s0.7,2.8,0.7,4.5
	c0,0.7-0.1,1.1-0.2,1.3c-0.1,0.2-0.4,0.3-0.8,0.3h-15.8c0,1.5,0.2,2.8,0.6,3.9c0.4,1.1,0.9,2,1.5,2.8c0.7,0.7,1.4,1.3,2.3,1.7
	c0.9,0.4,1.9,0.6,3.1,0.6c1,0,2-0.1,2.7-0.4c0.8-0.2,1.4-0.5,2-0.8c0.5-0.3,1-0.5,1.4-0.8c0.4-0.2,0.7-0.4,1-0.4
	c0.3,0,0.6,0.1,0.8,0.4l1.2,1.5c-0.5,0.6-1.1,1.2-1.9,1.6c-0.7,0.5-1.5,0.8-2.3,1.1s-1.7,0.5-2.5,0.7c-0.9,0.1-1.7,0.2-2.6,0.2
	c-1.6,0-3.2-0.3-4.5-0.8c-1.4-0.6-2.6-1.4-3.6-2.4c-1-1.1-1.8-2.4-2.4-4c-0.6-1.6-0.8-3.4-0.8-5.4c0-1.7,0.3-3.2,0.8-4.6
	s1.2-2.7,2.2-3.7s2.1-1.9,3.5-2.5C300,30.6,301.6,30.3,303.3,30.3z M303.4,33.3c-2,0-3.6,0.6-4.8,1.7c-1.2,1.2-1.9,2.8-2.2,4.8h12.9
	c0-1-0.1-1.9-0.4-2.7c-0.3-0.8-0.7-1.5-1.2-2.1s-1.1-1-1.9-1.4C305.2,33.5,304.3,33.3,303.4,33.3z"/>
<g>
	<path d="M111.3,77.4c-0.1,0.1-0.2,0.2-0.2,0.3c-0.1,0.1-0.2,0.1-0.3,0.1s-0.3,0-0.4-0.1c-0.2-0.1-0.3-0.2-0.6-0.3
		c-0.2-0.1-0.5-0.2-0.8-0.3c-0.3-0.1-0.6-0.1-1-0.1c-0.4,0-0.7,0-0.9,0.1c-0.3,0.1-0.5,0.2-0.7,0.4c-0.2,0.2-0.3,0.3-0.4,0.5
		c-0.1,0.2-0.1,0.4-0.1,0.7c0,0.3,0.1,0.6,0.3,0.8c0.2,0.2,0.4,0.4,0.7,0.6s0.6,0.3,1,0.4c0.4,0.1,0.8,0.3,1.2,0.4
		c0.4,0.1,0.8,0.3,1.2,0.5c0.4,0.2,0.7,0.4,1,0.7s0.5,0.6,0.7,1c0.2,0.4,0.3,0.9,0.3,1.5c0,0.6-0.1,1.2-0.3,1.8s-0.5,1-0.9,1.4
		s-0.9,0.7-1.5,1s-1.3,0.3-2,0.3c-0.4,0-0.9,0-1.3-0.1c-0.4-0.1-0.8-0.2-1.2-0.4s-0.8-0.4-1.1-0.6c-0.3-0.2-0.6-0.5-0.9-0.7l0.7-1.2
		c0.1-0.1,0.2-0.2,0.3-0.2c0.1-0.1,0.2-0.1,0.3-0.1c0.2,0,0.3,0.1,0.5,0.2c0.2,0.1,0.4,0.3,0.7,0.4c0.3,0.2,0.5,0.3,0.9,0.4
		c0.3,0.1,0.8,0.2,1.2,0.2c0.7,0,1.3-0.2,1.7-0.5c0.4-0.3,0.6-0.8,0.6-1.5c0-0.4-0.1-0.7-0.3-0.9c-0.2-0.2-0.4-0.4-0.7-0.6
		c-0.3-0.2-0.6-0.3-1-0.4c-0.4-0.1-0.8-0.2-1.2-0.4c-0.4-0.1-0.8-0.3-1.2-0.5c-0.4-0.2-0.7-0.4-1-0.7s-0.5-0.6-0.7-1.1
		c-0.2-0.4-0.3-1-0.3-1.6c0-0.5,0.1-1,0.3-1.5s0.5-0.9,0.9-1.3c0.4-0.4,0.9-0.7,1.4-0.9c0.6-0.2,1.2-0.3,1.9-0.3
		c0.8,0,1.6,0.1,2.3,0.4c0.7,0.3,1.3,0.6,1.8,1.1L111.3,77.4z"/>
	<path d="M116.9,76.1c0,0.2,0,0.4-0.1,0.6c-0.1,0.2-0.2,0.3-0.3,0.5c-0.1,0.1-0.3,0.2-0.5,0.3c-0.2,0.1-0.4,0.1-0.6,0.1
		c-0.2,0-0.4,0-0.6-0.1c-0.2-0.1-0.3-0.2-0.5-0.3c-0.1-0.1-0.2-0.3-0.3-0.5s-0.1-0.4-0.1-0.6c0-0.2,0-0.4,0.1-0.6
		c0.1-0.2,0.2-0.3,0.3-0.5s0.3-0.2,0.5-0.3c0.2-0.1,0.4-0.1,0.6-0.1c0.2,0,0.4,0,0.6,0.1c0.2,0.1,0.3,0.2,0.5,0.3
		c0.1,0.1,0.2,0.3,0.3,0.5C116.9,75.7,116.9,75.9,116.9,76.1z M116.5,78.9v9.8h-2.4v-9.8H116.5z"/>
	<path d="M119.2,88.7v-9.8h1.4c0.3,0,0.5,0.1,0.6,0.4l0.2,0.7c0.2-0.2,0.4-0.4,0.5-0.5c0.2-0.2,0.4-0.3,0.6-0.4
		c0.2-0.1,0.4-0.2,0.7-0.3c0.2-0.1,0.5-0.1,0.8-0.1c0.6,0,1.1,0.2,1.5,0.5c0.4,0.3,0.7,0.8,0.9,1.3c0.2-0.3,0.3-0.6,0.6-0.8
		c0.2-0.2,0.5-0.4,0.8-0.6c0.3-0.1,0.6-0.3,0.9-0.3c0.3-0.1,0.6-0.1,0.9-0.1c0.5,0,1,0.1,1.4,0.2s0.8,0.4,1.1,0.7
		c0.3,0.3,0.5,0.7,0.7,1.2c0.1,0.5,0.2,1,0.2,1.6v6.2h-2.4v-6.2c0-0.6-0.1-1.1-0.4-1.4c-0.3-0.3-0.7-0.5-1.2-0.5
		c-0.2,0-0.5,0-0.7,0.1c-0.2,0.1-0.4,0.2-0.5,0.4c-0.2,0.2-0.3,0.4-0.4,0.6c-0.1,0.2-0.1,0.5-0.1,0.8v6.2h-2.4v-6.2
		c0-0.7-0.1-1.1-0.4-1.4s-0.7-0.4-1.2-0.4c-0.3,0-0.7,0.1-1,0.3c-0.3,0.2-0.6,0.4-0.8,0.7v7.2H119.2z"/>
	<path d="M135.3,91.9v-13h1.4c0.2,0,0.3,0,0.4,0.1c0.1,0.1,0.2,0.2,0.2,0.3l0.2,0.9c0.4-0.5,0.8-0.8,1.4-1.1
		c0.5-0.3,1.1-0.4,1.8-0.4c0.5,0,1,0.1,1.5,0.3c0.4,0.2,0.8,0.5,1.1,1c0.3,0.4,0.6,0.9,0.7,1.6c0.2,0.6,0.3,1.3,0.3,2.1
		c0,0.7-0.1,1.4-0.3,2s-0.5,1.2-0.8,1.6s-0.8,0.8-1.3,1.1s-1.1,0.4-1.7,0.4c-0.6,0-1-0.1-1.4-0.3s-0.7-0.4-1-0.7v4H135.3z
		 M139.9,80.6c-0.5,0-0.9,0.1-1.3,0.3c-0.3,0.2-0.7,0.5-1,0.9v4.4c0.3,0.3,0.6,0.6,0.9,0.7c0.3,0.1,0.7,0.2,1,0.2
		c0.4,0,0.7-0.1,1-0.2c0.3-0.1,0.5-0.3,0.7-0.6s0.4-0.6,0.5-1c0.1-0.4,0.2-0.9,0.2-1.5c0-0.6,0-1.1-0.1-1.5s-0.2-0.7-0.4-1
		c-0.2-0.2-0.4-0.4-0.6-0.5C140.5,80.7,140.2,80.6,139.9,80.6z"/>
	<path d="M148.6,74.5v14.2h-2.4V74.5H148.6z"/>
	<path d="M155.3,78.8c0.6,0,1.2,0.1,1.7,0.3s1,0.5,1.3,0.9c0.4,0.4,0.7,0.8,0.9,1.4c0.2,0.6,0.3,1.2,0.3,1.9c0,0.2,0,0.3,0,0.4
		c0,0.1,0,0.2-0.1,0.3s-0.1,0.1-0.2,0.1c-0.1,0-0.2,0-0.3,0H153c0.1,1,0.3,1.7,0.8,2.2c0.5,0.5,1.1,0.7,1.9,0.7c0.4,0,0.7,0,1-0.1
		c0.3-0.1,0.5-0.2,0.7-0.3s0.4-0.2,0.5-0.3c0.2-0.1,0.3-0.1,0.5-0.1c0.1,0,0.2,0,0.2,0.1c0.1,0,0.1,0.1,0.2,0.2l0.7,0.9
		c-0.3,0.3-0.6,0.6-0.9,0.8s-0.7,0.4-1,0.5s-0.7,0.2-1.1,0.3c-0.4,0.1-0.7,0.1-1.1,0.1c-0.7,0-1.3-0.1-1.9-0.3s-1.1-0.6-1.5-1
		c-0.4-0.4-0.8-1-1-1.6c-0.2-0.7-0.4-1.4-0.4-2.3c0-0.7,0.1-1.3,0.3-1.9c0.2-0.6,0.5-1.1,0.9-1.5c0.4-0.4,0.9-0.8,1.5-1
		S154.6,78.8,155.3,78.8z M155.4,80.5c-0.7,0-1.2,0.2-1.6,0.6c-0.4,0.4-0.6,0.9-0.7,1.7h4.4c0-0.3,0-0.6-0.1-0.9
		c-0.1-0.3-0.2-0.5-0.4-0.7c-0.2-0.2-0.4-0.4-0.6-0.5S155.7,80.5,155.4,80.5z"/>
	<path d="M177.4,88.7h-2c-0.2,0-0.4-0.1-0.5-0.2c-0.1-0.1-0.2-0.3-0.3-0.4l-1-2.8h-5.7l-1,2.8c-0.1,0.1-0.2,0.3-0.3,0.4
		c-0.1,0.1-0.3,0.2-0.5,0.2h-2l5.4-13.8h2.6L177.4,88.7z M168.5,83.5h4.4l-1.7-4.6c-0.1-0.2-0.2-0.4-0.3-0.7s-0.2-0.6-0.3-0.9
		c-0.1,0.3-0.2,0.6-0.3,0.9s-0.2,0.5-0.3,0.7L168.5,83.5z"/>
	<path d="M185.6,81c-0.1,0.1-0.1,0.2-0.2,0.2c-0.1,0.1-0.2,0.1-0.3,0.1c-0.1,0-0.2,0-0.4-0.1c-0.1-0.1-0.3-0.2-0.4-0.2
		s-0.3-0.2-0.6-0.2s-0.5-0.1-0.8-0.1c-0.4,0-0.8,0.1-1.1,0.2c-0.3,0.1-0.6,0.4-0.8,0.6s-0.4,0.6-0.5,1c-0.1,0.4-0.2,0.8-0.2,1.4
		c0,0.5,0.1,1,0.2,1.4c0.1,0.4,0.3,0.7,0.5,1c0.2,0.3,0.5,0.5,0.8,0.6c0.3,0.1,0.6,0.2,1,0.2c0.4,0,0.7,0,0.9-0.1
		c0.2-0.1,0.4-0.2,0.6-0.3c0.2-0.1,0.3-0.2,0.4-0.3c0.1-0.1,0.2-0.1,0.4-0.1c0.2,0,0.3,0.1,0.4,0.2l0.7,0.9
		c-0.3,0.3-0.5,0.6-0.9,0.8s-0.6,0.4-1,0.5s-0.7,0.2-1,0.3c-0.4,0.1-0.7,0.1-1,0.1c-0.6,0-1.2-0.1-1.7-0.3c-0.5-0.2-1-0.6-1.4-1
		c-0.4-0.4-0.7-1-0.9-1.6c-0.2-0.6-0.3-1.3-0.3-2.1c0-0.7,0.1-1.4,0.3-2c0.2-0.6,0.5-1.1,0.9-1.6c0.4-0.4,0.9-0.8,1.5-1.1
		s1.3-0.4,2-0.4c0.7,0,1.4,0.1,1.9,0.4c0.6,0.2,1,0.6,1.5,1L185.6,81z"/>
	<path d="M194.7,81c-0.1,0.1-0.1,0.2-0.2,0.2c-0.1,0.1-0.2,0.1-0.3,0.1c-0.1,0-0.2,0-0.4-0.1c-0.1-0.1-0.3-0.2-0.4-0.2
		s-0.3-0.2-0.6-0.2s-0.5-0.1-0.8-0.1c-0.4,0-0.8,0.1-1.1,0.2c-0.3,0.1-0.6,0.4-0.8,0.6s-0.4,0.6-0.5,1c-0.1,0.4-0.2,0.8-0.2,1.4
		c0,0.5,0.1,1,0.2,1.4c0.1,0.4,0.3,0.7,0.5,1c0.2,0.3,0.5,0.5,0.8,0.6c0.3,0.1,0.6,0.2,1,0.2c0.4,0,0.7,0,0.9-0.1
		c0.2-0.1,0.4-0.2,0.6-0.3c0.2-0.1,0.3-0.2,0.4-0.3c0.1-0.1,0.2-0.1,0.4-0.1c0.2,0,0.3,0.1,0.4,0.2l0.7,0.9
		c-0.3,0.3-0.5,0.6-0.9,0.8s-0.6,0.4-1,0.5s-0.7,0.2-1,0.3c-0.4,0.1-0.7,0.1-1,0.1c-0.6,0-1.2-0.1-1.7-0.3c-0.5-0.2-1-0.6-1.4-1
		c-0.4-0.4-0.7-1-0.9-1.6c-0.2-0.6-0.3-1.3-0.3-2.1c0-0.7,0.1-1.4,0.3-2c0.2-0.6,0.5-1.1,0.9-1.6c0.4-0.4,0.9-0.8,1.5-1.1
		s1.3-0.4,2-0.4c0.7,0,1.4,0.1,1.9,0.4c0.6,0.2,1,0.6,1.5,1L194.7,81z"/>
	<path d="M201.1,78.8c0.7,0,1.4,0.1,2,0.4c0.6,0.2,1.1,0.6,1.5,1c0.4,0.4,0.7,1,1,1.6c0.2,0.6,0.3,1.3,0.3,2.1
		c0,0.8-0.1,1.5-0.3,2.1c-0.2,0.6-0.6,1.2-1,1.6c-0.4,0.4-0.9,0.8-1.5,1c-0.6,0.2-1.3,0.4-2,0.4s-1.4-0.1-2-0.4
		c-0.6-0.2-1.1-0.6-1.5-1s-0.8-1-1-1.6s-0.3-1.3-0.3-2.1c0-0.8,0.1-1.5,0.3-2.1c0.2-0.6,0.6-1.2,1-1.6s0.9-0.8,1.5-1
		C199.7,78.9,200.4,78.8,201.1,78.8z M201.1,87c0.8,0,1.4-0.3,1.8-0.8c0.4-0.5,0.6-1.3,0.6-2.4s-0.2-1.9-0.6-2.4
		c-0.4-0.6-1-0.8-1.8-0.8c-0.8,0-1.4,0.3-1.8,0.8c-0.4,0.6-0.6,1.4-0.6,2.4c0,1.1,0.2,1.9,0.6,2.4S200.3,87,201.1,87z"/>
	<path d="M210,78.9v6.2c0,0.6,0.1,1.1,0.4,1.4c0.3,0.3,0.7,0.5,1.2,0.5c0.4,0,0.8-0.1,1.1-0.3s0.7-0.4,1-0.8v-7.1h2.4v9.8h-1.4
		c-0.3,0-0.5-0.1-0.6-0.4l-0.2-0.8c-0.2,0.2-0.4,0.4-0.6,0.6c-0.2,0.2-0.4,0.3-0.7,0.4c-0.2,0.1-0.5,0.2-0.8,0.3s-0.6,0.1-0.9,0.1
		c-0.5,0-1-0.1-1.4-0.3c-0.4-0.2-0.8-0.4-1-0.8s-0.5-0.7-0.6-1.2c-0.1-0.5-0.2-1-0.2-1.5v-6.2H210z"/>
	<path d="M218.7,88.7v-9.8h1.4c0.3,0,0.5,0.1,0.6,0.4l0.2,0.8c0.2-0.2,0.4-0.4,0.6-0.6s0.5-0.3,0.7-0.4c0.2-0.1,0.5-0.2,0.8-0.3
		s0.6-0.1,0.9-0.1c0.5,0,1,0.1,1.4,0.3c0.4,0.2,0.8,0.4,1,0.8c0.3,0.3,0.5,0.7,0.6,1.2c0.1,0.5,0.2,1,0.2,1.5v6.2h-2.4v-6.2
		c0-0.6-0.1-1.1-0.4-1.4s-0.7-0.5-1.2-0.5c-0.4,0-0.8,0.1-1.1,0.3c-0.4,0.2-0.7,0.4-1,0.8v7.1H218.7z"/>
	<path d="M232.8,88.9c-0.8,0-1.5-0.2-2-0.7c-0.5-0.5-0.7-1.1-0.7-2v-5.5h-1c-0.1,0-0.2,0-0.3-0.1c-0.1-0.1-0.1-0.2-0.1-0.4v-0.9
		l1.6-0.3l0.5-2.7c0-0.1,0.1-0.2,0.2-0.3c0.1-0.1,0.2-0.1,0.3-0.1h1.2V79h2.6v1.7h-2.6V86c0,0.3,0.1,0.5,0.2,0.7
		c0.2,0.2,0.4,0.3,0.6,0.3c0.1,0,0.3,0,0.4-0.1c0.1,0,0.2-0.1,0.3-0.1c0.1,0,0.1-0.1,0.2-0.1c0.1,0,0.1-0.1,0.2-0.1
		c0.1,0,0.1,0,0.2,0.1c0,0,0.1,0.1,0.1,0.2l0.7,1.1c-0.3,0.3-0.7,0.5-1.2,0.6C233.7,88.8,233.2,88.9,232.8,88.9z"/>
	<path d="M242.8,80.8c-0.1,0.1-0.1,0.2-0.2,0.2c-0.1,0-0.2,0.1-0.3,0.1c-0.1,0-0.2,0-0.4-0.1c-0.1-0.1-0.3-0.1-0.5-0.2
		c-0.2-0.1-0.4-0.2-0.6-0.2c-0.2-0.1-0.5-0.1-0.8-0.1c-0.5,0-0.8,0.1-1.1,0.3s-0.4,0.5-0.4,0.8c0,0.2,0.1,0.4,0.2,0.5
		c0.1,0.1,0.3,0.3,0.5,0.4c0.2,0.1,0.5,0.2,0.8,0.3c0.3,0.1,0.6,0.2,0.9,0.3c0.3,0.1,0.6,0.2,0.9,0.3c0.3,0.1,0.5,0.3,0.8,0.5
		c0.2,0.2,0.4,0.4,0.5,0.7c0.1,0.3,0.2,0.6,0.2,1c0,0.5-0.1,0.9-0.3,1.3s-0.4,0.7-0.8,1c-0.3,0.3-0.7,0.5-1.2,0.7
		c-0.5,0.2-1,0.2-1.7,0.2c-0.3,0-0.7,0-1-0.1c-0.3-0.1-0.6-0.1-0.9-0.3s-0.6-0.2-0.8-0.4c-0.3-0.1-0.5-0.3-0.7-0.5l0.5-0.9
		c0.1-0.1,0.2-0.2,0.2-0.2c0.1-0.1,0.2-0.1,0.4-0.1s0.3,0,0.4,0.1c0.1,0.1,0.3,0.2,0.5,0.3c0.2,0.1,0.4,0.2,0.6,0.3
		c0.2,0.1,0.5,0.1,0.9,0.1c0.3,0,0.5,0,0.7-0.1c0.2-0.1,0.4-0.2,0.5-0.3c0.1-0.1,0.2-0.2,0.3-0.4c0.1-0.1,0.1-0.3,0.1-0.4
		c0-0.2-0.1-0.4-0.2-0.6c-0.1-0.1-0.3-0.3-0.5-0.4c-0.2-0.1-0.5-0.2-0.8-0.3c-0.3-0.1-0.6-0.2-0.9-0.3c-0.3-0.1-0.6-0.2-0.9-0.4
		c-0.3-0.1-0.5-0.3-0.8-0.5s-0.4-0.5-0.5-0.8c-0.1-0.3-0.2-0.7-0.2-1.1c0-0.4,0.1-0.8,0.2-1.1c0.2-0.4,0.4-0.7,0.7-1
		c0.3-0.3,0.7-0.5,1.2-0.6c0.5-0.2,1-0.2,1.6-0.2c0.7,0,1.3,0.1,1.8,0.3c0.6,0.2,1,0.5,1.4,0.9L242.8,80.8z"/>
	<path d="M244.8,87.3c0-0.2,0-0.3,0.1-0.5c0.1-0.2,0.2-0.3,0.3-0.4c0.1-0.1,0.3-0.2,0.4-0.3s0.4-0.1,0.6-0.1c0.2,0,0.5,0,0.6,0.1
		c0.2,0.1,0.3,0.2,0.4,0.4c0.1,0.1,0.2,0.3,0.3,0.5s0.1,0.4,0.1,0.6c0,0.3,0,0.6-0.1,1c-0.1,0.3-0.2,0.7-0.4,1
		c-0.2,0.3-0.4,0.7-0.7,1c-0.3,0.3-0.6,0.6-0.9,0.9l-0.4-0.4c-0.1-0.1-0.2-0.2-0.2-0.4c0-0.1,0-0.1,0.1-0.2c0-0.1,0.1-0.1,0.1-0.2
		c0.1-0.1,0.2-0.2,0.3-0.3c0.1-0.1,0.2-0.2,0.3-0.4c0.1-0.1,0.2-0.3,0.3-0.5c0.1-0.2,0.1-0.3,0.2-0.5c-0.2,0-0.4,0-0.5-0.1
		c-0.2-0.1-0.3-0.2-0.4-0.3c-0.1-0.1-0.2-0.3-0.3-0.4C244.8,87.7,244.8,87.5,244.8,87.3z"/>
	<path d="M266.7,81.8c0,1-0.2,2-0.5,2.8c-0.3,0.9-0.8,1.6-1.4,2.2s-1.3,1.1-2.2,1.5c-0.9,0.4-1.8,0.5-2.9,0.5c-1,0-2-0.2-2.9-0.5
		c-0.9-0.4-1.6-0.8-2.2-1.5s-1.1-1.4-1.4-2.2c-0.3-0.9-0.5-1.8-0.5-2.8c0-1,0.2-2,0.5-2.8c0.3-0.9,0.8-1.6,1.4-2.2s1.4-1.1,2.2-1.5
		c0.9-0.4,1.8-0.5,2.9-0.5c1,0,2,0.2,2.9,0.5s1.6,0.8,2.2,1.5c0.6,0.6,1.1,1.4,1.4,2.2C266.5,79.9,266.7,80.8,266.7,81.8z M264,81.8
		c0-0.8-0.1-1.4-0.3-2c-0.2-0.6-0.5-1.1-0.9-1.5c-0.4-0.4-0.8-0.7-1.4-1c-0.5-0.2-1.1-0.3-1.8-0.3c-0.7,0-1.3,0.1-1.8,0.3
		c-0.5,0.2-1,0.5-1.4,1c-0.4,0.4-0.7,0.9-0.9,1.5c-0.2,0.6-0.3,1.3-0.3,2s0.1,1.4,0.3,2c0.2,0.6,0.5,1.1,0.9,1.5s0.8,0.7,1.4,1
		c0.5,0.2,1.1,0.3,1.8,0.3c0.7,0,1.3-0.1,1.8-0.3c0.5-0.2,1-0.5,1.4-1c0.4-0.4,0.7-0.9,0.9-1.5C263.9,83.3,264,82.6,264,81.8z"/>
	<path d="M268.5,88.7v-9.8h1.4c0.3,0,0.5,0.1,0.6,0.4l0.2,0.8c0.2-0.2,0.4-0.4,0.6-0.6s0.5-0.3,0.7-0.4c0.2-0.1,0.5-0.2,0.8-0.3
		s0.6-0.1,0.9-0.1c0.5,0,1,0.1,1.4,0.3c0.4,0.2,0.8,0.4,1,0.8c0.3,0.3,0.5,0.7,0.6,1.2c0.1,0.5,0.2,1,0.2,1.5v6.2h-2.4v-6.2
		c0-0.6-0.1-1.1-0.4-1.4s-0.7-0.5-1.2-0.5c-0.4,0-0.8,0.1-1.1,0.3c-0.4,0.2-0.7,0.4-1,0.8v7.1H268.5z"/>
	<path d="M281.9,74.5v14.2h-2.4V74.5H281.9z"/>
	<path d="M287.4,76.1c0,0.2,0,0.4-0.1,0.6s-0.2,0.3-0.3,0.5c-0.1,0.1-0.3,0.2-0.5,0.3s-0.4,0.1-0.6,0.1c-0.2,0-0.4,0-0.6-0.1
		s-0.3-0.2-0.5-0.3c-0.1-0.1-0.2-0.3-0.3-0.5c-0.1-0.2-0.1-0.4-0.1-0.6c0-0.2,0-0.4,0.1-0.6c0.1-0.2,0.2-0.3,0.3-0.5
		c0.1-0.1,0.3-0.2,0.5-0.3s0.4-0.1,0.6-0.1c0.2,0,0.4,0,0.6,0.1s0.3,0.2,0.5,0.3s0.2,0.3,0.3,0.5C287.4,75.7,287.4,75.9,287.4,76.1z
		 M287.1,78.9v9.8h-2.4v-9.8H287.1z"/>
	<path d="M289.8,88.7v-9.8h1.4c0.3,0,0.5,0.1,0.6,0.4l0.2,0.8c0.2-0.2,0.4-0.4,0.6-0.6s0.5-0.3,0.7-0.4c0.2-0.1,0.5-0.2,0.8-0.3
		s0.6-0.1,0.9-0.1c0.5,0,1,0.1,1.4,0.3c0.4,0.2,0.8,0.4,1,0.8c0.3,0.3,0.5,0.7,0.6,1.2c0.1,0.5,0.2,1,0.2,1.5v6.2h-2.4v-6.2
		c0-0.6-0.1-1.1-0.4-1.4s-0.7-0.5-1.2-0.5c-0.4,0-0.8,0.1-1.1,0.3c-0.4,0.2-0.7,0.4-1,0.8v7.1H289.8z"/>
	<path d="M304.7,78.8c0.6,0,1.2,0.1,1.7,0.3c0.5,0.2,1,0.5,1.3,0.9c0.4,0.4,0.7,0.8,0.9,1.4s0.3,1.2,0.3,1.9c0,0.2,0,0.3,0,0.4
		c0,0.1,0,0.2-0.1,0.3c0,0.1-0.1,0.1-0.2,0.1c-0.1,0-0.2,0-0.3,0h-6.1c0.1,1,0.3,1.7,0.8,2.2c0.5,0.5,1.1,0.7,1.9,0.7
		c0.4,0,0.7,0,1-0.1c0.3-0.1,0.5-0.2,0.7-0.3c0.2-0.1,0.4-0.2,0.5-0.3c0.2-0.1,0.3-0.1,0.5-0.1c0.1,0,0.2,0,0.2,0.1s0.1,0.1,0.2,0.2
		l0.7,0.9c-0.3,0.3-0.6,0.6-0.9,0.8c-0.3,0.2-0.7,0.4-1,0.5c-0.4,0.1-0.7,0.2-1.1,0.3c-0.4,0.1-0.7,0.1-1.1,0.1
		c-0.7,0-1.3-0.1-1.9-0.3s-1.1-0.6-1.5-1c-0.4-0.4-0.8-1-1-1.6c-0.2-0.7-0.4-1.4-0.4-2.3c0-0.7,0.1-1.3,0.3-1.9
		c0.2-0.6,0.5-1.1,0.9-1.5c0.4-0.4,0.9-0.8,1.5-1C303.3,78.9,303.9,78.8,304.7,78.8z M304.7,80.5c-0.7,0-1.2,0.2-1.6,0.6
		c-0.4,0.4-0.6,0.9-0.7,1.7h4.4c0-0.3,0-0.6-0.1-0.9c-0.1-0.3-0.2-0.5-0.4-0.7c-0.2-0.2-0.4-0.4-0.6-0.5S305.1,80.5,304.7,80.5z"/>
	<path d="M310.3,87.4c0-0.2,0-0.4,0.1-0.6c0.1-0.2,0.2-0.3,0.3-0.5c0.1-0.1,0.3-0.2,0.5-0.3c0.2-0.1,0.4-0.1,0.6-0.1
		c0.2,0,0.4,0,0.6,0.1c0.2,0.1,0.3,0.2,0.5,0.3c0.1,0.1,0.2,0.3,0.3,0.5c0.1,0.2,0.1,0.4,0.1,0.6c0,0.2,0,0.4-0.1,0.6
		c-0.1,0.2-0.2,0.3-0.3,0.5c-0.1,0.1-0.3,0.2-0.5,0.3c-0.2,0.1-0.4,0.1-0.6,0.1c-0.2,0-0.4,0-0.6-0.1c-0.2-0.1-0.3-0.2-0.5-0.3
		c-0.1-0.1-0.2-0.3-0.3-0.5C310.3,87.8,310.3,87.6,310.3,87.4z"/>
</g>
</svg>
